<?xml version="1.0" encoding="UTF-8" standalone="no"?>
<!-- Created with Inkscape (http://www.inkscape.org/) -->

<svg
   width="103mm"
   height="103mm"
   viewBox="0 0 103 103"
   version="1.1"
   id="svg5"
   xml:space="preserve"
   inkscape:version="1.2.2 (b0a8486541, 2022-12-01)"
   sodipodi:docname="logo.svg"
   inkscape:export-filename="logo.png"
   inkscape:export-xdpi="147.96001"
   inkscape:export-ydpi="147.96001"
   xmlns:inkscape="http://www.inkscape.org/namespaces/inkscape"
   xmlns:sodipodi="http://sodipodi.sourceforge.net/DTD/sodipodi-0.dtd"
   xmlns="http://www.w3.org/2000/svg"
   xmlns:svg="http://www.w3.org/2000/svg"><sodipodi:namedview
     id="namedview7"
     pagecolor="#ffffff"
     bordercolor="#666666"
     borderopacity="1.0"
     inkscape:showpageshadow="2"
     inkscape:pageopacity="0.0"
     inkscape:pagecheckerboard="false"
     inkscape:deskcolor="#d1d1d1"
     inkscape:document-units="mm"
     showgrid="false"
     inkscape:zoom="1.4142136"
     inkscape:cx="190.91883"
     inkscape:cy="328.45109"
     inkscape:window-width="1557"
     inkscape:window-height="1378"
     inkscape:window-x="993"
     inkscape:window-y="28"
     inkscape:window-maximized="0"
     inkscape:current-layer="layer1" /><defs
     id="defs2"><rect
       x="101.65699"
       y="422.83255"
       width="616.06396"
       height="257.60001"
       id="rect356" /></defs><g
     inkscape:label="Layer 1"
     inkscape:groupmode="layer"
     id="layer1"
     transform="translate(-55.74017,-87.470665)"><g
       id="g6110"
       transform="matrix(0.2302992,0,0,0.2302992,118.27032,52.5327)"><rect
         fill="#0d5eaf"
         width="158.75"
         height="105.83334"
         id="rect5587"
         x="6.1242619"
         y="277.55576"
         style="stroke-width:5.87963" /><path
         fill="none"
         stroke-width="11.7593"
         stroke="#ffffff"
         d="m 35.522415,277.55575 v 64.67592 M 6.1242654,306.9539 H 64.920565 m 0,-11.75926 H 164.87427 M 64.920565,318.71315 H 164.87427 M 6.1242654,342.23167 H 164.87427 M 6.1242654,365.75019 H 164.87427"
         id="path5589" /></g><g
       id="g6135"
       style="fill:#95aac0;fill-opacity:1"><path
         id="text354"
         style="font-style:normal;font-weight:normal;font-size:96px;line-height:1.25;font-family:sans-serif;letter-spacing:-3.52px;white-space:pre;shape-inside:url(#rect356);fill:#95aac0;fill-opacity:1;stroke:none;stroke-width:0.272073"
         d="m 113.32806,140.62724 c 0,2.75775 0,5.5155 0,8.27325 -1.33192,-0.86054 -2.9609,-1.1593 -4.52746,-1.09945 -2.68125,0.13339 -5.22228,1.88118 -6.26035,4.36405 -0.74471,1.71685 -0.67336,3.76199 0.19989,5.41868 1.23367,2.41203 3.91668,3.98379 6.62233,3.90026 1.37779,-0.0305 2.78648,-0.32641 3.96559,-1.06508 0,0.23967 0,0.47932 0,0.71898 1.7327,0 3.46539,0 5.19808,0 0.004,-2.46206 -0.007,-4.92457 0.006,-7.38633 0.10256,-0.82579 0.83094,-1.49629 1.63236,-1.64576 0.64017,-0.12433 1.31988,0.22075 1.60976,0.80244 0.33655,0.58426 0.21613,1.27636 0.2379,1.91776 0,2.10396 0,4.20791 0,6.31189 1.73251,0 3.46503,0 5.19756,0 0,-1.45743 0,-2.91487 0,-4.3723 0.72879,2.1778 2.62783,3.88672 4.83919,4.46778 1.3145,0.35928 2.71037,0.30406 4.03751,0.0447 1.51061,-0.30285 2.93644,-1.09655 3.90429,-2.30736 0.3503,-0.4207 0.62196,-0.89752 0.91297,-1.35916 -1.24005,-0.62004 -2.4802,-1.23988 -3.72026,-1.85989 1.20537,0 2.41074,0 3.61612,0 0.16925,-1.25534 0.0699,-2.55628 -0.3386,-3.75812 -0.47754,-1.42839 -1.5116,-2.66142 -2.85048,-3.35658 -1.34662,-0.71117 -2.91451,-0.94325 -4.42144,-0.80554 -2.21274,0.2173 -4.29741,1.52463 -5.41328,3.45432 -0.23315,0.39508 -0.42389,0.81521 -0.57028,1.24995 -0.0261,-1.19457 -0.51471,-2.38398 -1.40235,-3.1958 -1.18184,-1.08642 -2.82495,-1.54818 -4.4048,-1.54765 -1.03579,0.008 -2.03916,0.40673 -2.87155,1.00882 0,-2.906 0,-5.81202 0,-8.71802 -1.7327,0 -3.46539,0 -5.19808,0 0,0.18138 0,0.36277 0,0.54414 z m -54.772194,1.02293 c 2.724214,6.49595 5.448885,12.99169 8.172813,19.48776 1.386578,0 2.773159,0 4.159738,0 2.829569,-6.74757 5.659327,-13.49505 8.489526,-20.24234 -2.038249,0 -4.076488,0 -6.114733,0 -1.484791,3.86982 -2.969789,7.73956 -4.454662,11.60933 -1.485045,-3.86977 -2.970252,-7.7395 -4.455193,-11.60933 -2.038066,0 -4.076133,0 -6.114199,0 0.105574,0.25154 0.211139,0.50306 0.31671,0.75458 z m 22.85943,-0.41395 c -2.677691,6.6339 -5.355289,13.26783 -8.033054,19.90171 1.958536,0 3.917071,0 5.875605,0 0.471746,-1.27706 0.94415,-2.55387 1.416163,-3.83081 2.177471,0 4.354931,0 6.532401,0 0.472014,1.27694 0.944419,2.55375 1.416165,3.83081 1.958359,0 3.916718,0 5.875066,0 -2.723676,-6.7474 -5.446859,-13.495 -8.170679,-20.24234 -1.591347,0 -3.182692,0 -4.774028,0 -0.04587,0.11355 -0.09172,0.22708 -0.137639,0.34063 z m 9.195213,0.20352 c 0,1.45832 0,2.91664 0,4.37496 1.516773,0 3.033546,0 4.550319,0 0,5.10774 0,10.21548 0,15.32323 1.817707,0 3.635425,0 5.453152,0 0,-5.10775 0,-10.21549 0,-15.32323 1.51694,0 3.03389,0 4.55083,0 0,-1.63971 0,-3.2794 0,-4.91911 -4.85144,0 -9.702862,0 -14.554301,0 0,0.18139 0,0.36276 0,0.54415 z m 49.587941,7.57501 c 1.36745,1.78193 2.7349,3.56386 4.10234,5.34579 -1.84602,2.25915 -3.6923,4.51811 -5.53816,6.77739 2.12716,0 4.25432,0 6.38148,0 0.78604,-1.00834 1.57185,-2.01683 2.3578,-3.02522 0.78594,1.00839 1.57175,2.01688 2.35779,3.02522 2.12715,0 4.25432,0 6.38148,0 -1.8457,-2.2591 -3.69177,-4.51789 -5.53763,-6.77686 1.59158,-2.07379 3.18229,-4.14825 4.77456,-6.22153 -2.06075,0 -4.12148,0 -6.18223,0 -0.5977,0.79976 -1.19602,1.5991 -1.79397,2.3987 -0.59779,-0.79959 -1.19585,-1.59897 -1.79346,-2.3987 -2.06074,0 -4.12147,0 -6.18221,0 0.22407,0.29173 0.44814,0.58346 0.67221,0.87521 z m -54.890704,3.37327 c -0.911861,0 -1.823733,0 -2.735605,0 0.45593,-1.18943 0.911872,-2.37887 1.367802,-3.5683 0.455942,1.18943 0.911873,2.37887 1.367803,3.5683 z m 28.020314,6.59298 c -0.4499,-0.92215 -0.89993,-1.84422 -1.34974,-2.76643 -0.42565,0.30353 -0.86638,0.61102 -1.38886,0.71723 -0.7254,0.18895 -1.55467,0.12648 -2.15911,-0.35217 -0.97763,-0.71611 -1.23801,-2.19413 -0.60107,-3.21674 0.44321,-0.76161 1.34675,-1.21526 2.22279,-1.10417 0.63467,0.0429 1.2445,0.28756 1.7437,0.67969 0.16966,0.20182 0.2425,0.0341 0.31219,-0.14584 0.40634,-0.82017 0.81344,-1.63996 1.2201,-2.45998 0,2.88281 0,5.7656 0,8.64841 z m 20.92251,-7.42462 c 0.54913,0.0246 1.10656,0.31644 1.34018,0.83164 -1.03852,0 -2.07704,0 -3.11556,0 0.30039,-0.67543 1.09761,-0.8849 1.77538,-0.83164 z m 2.71702,4.19534 c -0.52775,0.55454 -1.08369,1.20012 -1.88707,1.31437 -0.75472,0.12154 -1.60544,0.0918 -2.22619,-0.40953 -0.28674,-0.22501 -0.49004,-0.55047 -0.5731,-0.90484 1.56211,0 3.12424,0 4.68636,0 z" /><path
         id="rect1384"
         style="fill-rule:evenodd;stroke-width:2.21937;stroke-linejoin:round;paint-order:markers fill stroke;fill:#95aac0;fill-opacity:1"
         d="m 113.32806,116.45357 h 5.1987 v 26.00274 h -5.1987 z" /></g></g></svg>
