<?xml version="1.0" encoding="UTF-8" standalone="no"?>
<svg
   width="100mm"
   height="100mm"
   viewBox="0 0 100 100"
   version="1.1"
   id="svg63"
   sodipodi:docname="logo.svg"
   inkscape:version="1.2.2 (b0a8486541, 2022-12-01)"
   inkscape:export-filename="logo.png"
   inkscape:export-xdpi="152.39999"
   inkscape:export-ydpi="152.39999"
   xmlns:inkscape="http://www.inkscape.org/namespaces/inkscape"
   xmlns:sodipodi="http://sodipodi.sourceforge.net/DTD/sodipodi-0.dtd"
   xmlns="http://www.w3.org/2000/svg"
   xmlns:svg="http://www.w3.org/2000/svg">
  <defs
     id="defs67">
    <rect
       x="13.76629"
       y="112.79637"
       width="352.33528"
       height="148.90326"
       id="rect228" />
    <rect
       x="13.76629"
       y="112.79637"
       width="352.33527"
       height="148.90326"
       id="rect228-1" />
    <rect
       x="13.76629"
       y="112.79637"
       width="352.33527"
       height="148.90326"
       id="rect228-4" />
  </defs>
  <sodipodi:namedview
     id="namedview65"
     pagecolor="#ffffff"
     bordercolor="#666666"
     borderopacity="1.0"
     inkscape:showpageshadow="2"
     inkscape:pageopacity="0.0"
     inkscape:pagecheckerboard="0"
     inkscape:deskcolor="#d1d1d1"
     inkscape:document-units="mm"
     showgrid="false"
     inkscape:zoom="0.96070032"
     inkscape:cx="294.05632"
     inkscape:cy="225.35644"
     inkscape:window-width="1270"
     inkscape:window-height="1378"
     inkscape:window-x="1280"
     inkscape:window-y="28"
     inkscape:window-maximized="0"
     inkscape:current-layer="layer1" />
  <path
     id="rect13"
     style="fill:#22f7b3"
     d="M 79.999768 20.878312 C 82.43669 19.687731 84.873512 18.497018 87.310433 17.306437 C 84.873494 16.116378 82.436707 14.926171 79.999768 13.736112 L 79.999768 19.999813 L 79.999768 20.878312 z " />
  <path
     id="path2793"
     style="fill:#22f7b3"
     d="M 79.999768 59.999955 L 59.999955 59.999955 L 59.999955 40.000142 L 40.000142 40.000142 L 40.000142 59.999955 L 19.999813 59.999955 L 19.999813 79.999768 L 19.999813 100.0001 L 40.000142 100.0001 L 40.000142 79.999768 L 59.999955 79.999768 L 59.999955 100.0001 L 79.999768 100.0001 L 79.999768 79.999768 L 79.999768 59.999955 z " />
  <path
     id="path2791"
     style="fill:#22f7b3"
     d="M 79.999768 28.784806 L 79.999768 40.000142 L 79.999768 59.999955 L 100.0001 59.999955 L 100.0001 40.000142 L 100.0001 19.999813 L 100.0001 0 L 79.999768 0 L 79.999768 5.8306519 C 85.628147 8.6213769 91.256376 11.41208 96.884526 14.203267 L 96.884526 20.412191 C 91.256283 23.203223 85.628622 25.99501 79.999768 28.784806 z " />
  <path
     id="path2787"
     style="fill:#22f7b3"
     d="M 19.999813 13.73973 C 17.563913 14.927603 15.124669 16.119577 12.689665 17.306437 C 15.126419 18.496753 17.563058 19.686963 19.999813 20.877279 L 19.999813 19.999813 L 19.999813 13.73973 z " />
  <path
     id="path2783"
     style="fill:#22f7b3"
     d="M 0 0 L 0 19.999813 L 0 40.000142 L 0 59.999955 L 19.999813 59.999955 L 19.999813 40.000142 L 19.999813 28.784806 C 14.370897 25.995352 8.743266 23.203071 3.1150553 20.412191 L 3.1150553 14.203267 C 8.7430636 11.411825 14.371578 8.6206051 19.999813 5.8296183 L 19.999813 0 L 0 0 z " />
  <g
     inkscape:groupmode="layer"
     id="layer1"
     inkscape:label="Layer 1"
     style="display:inline">
    <text
       xml:space="preserve"
       transform="matrix(0.81140338,0,0,0.81140338,-104.11276,-98.876836)"
       id="text226"
       style="font-style:normal;font-weight:normal;font-size:53.3333px;line-height:1.25;font-family:sans-serif;letter-spacing:-3.82px;white-space:pre;shape-inside:url(#rect228);display:inline;fill:#f7b022;fill-opacity:1;stroke:none"
       x="120.09995"
       y="0"><tspan
         x="130.90697"
         y="161.32352"
         id="tspan2924"><tspan
           style="font-weight:600;font-family:'Iosevka Fixed';-inkscape-font-specification:'Iosevka Fixed Semi-Bold';text-align:center;text-anchor:middle"
           id="tspan2922">&lt;svg&gt;</tspan></tspan></text>
  </g>
</svg>
