<svg version="1.1" width="20mm" height="20mm" viewBox="0 0 180 180" preserveAspectRatio="xMidYMid meet" shape-rendering="crispEdges" xmlns="http://www.w3.org/2000/svg">
  <rect width="20" height="20" x="20" y="0" style="stroke: #cf7852; stroke-width: 0; stroke-opacity: 0.5; fill: #cf7852; fill-opacity: 0.5;"/>
  <rect width="20" height="20" x="40" y="0" style="stroke: #cf7852; stroke-width: 0; stroke-opacity: 0.5; fill: #cf7852; fill-opacity: 0.5;"/>
  <rect width="20" height="20" x="60" y="0" style="stroke: #cf7852; stroke-width: 0; stroke-opacity: 0.5; fill: #cf7852; fill-opacity: 0.5;"/>
  <rect width="20" height="20" x="80" y="0" style="stroke: #cf7852; stroke-width: 0; stroke-opacity: 0.5; fill: #cf7852; fill-opacity: 0.5;"/>
  <rect width="20" height="20" x="100" y="0" style="stroke: #cf7852; stroke-width: 0; stroke-opacity: 0.5; fill: #cf7852; fill-opacity: 0.5;"/>
  <rect width="20" height="20" x="120" y="0" style="stroke: #cf7852; stroke-width: 0; stroke-opacity: 0.5; fill: #cf7852; fill-opacity: 0.5;"/>
  <rect width="20" height="20" x="140" y="0" style="stroke: #cf7852; stroke-width: 0; stroke-opacity: 0.5; fill: #cf7852; fill-opacity: 0.5;"/>
  <rect width="20" height="20" x="20" y="20" style="stroke: #cf7852; stroke-width: 0; stroke-opacity: 0.5; fill: #cf7852; fill-opacity: 0.5;"/>
  <rect width="20" height="20" x="60" y="20" style="stroke: #cf7852; stroke-width: 0; stroke-opacity: 0.5; fill: #cf7852; fill-opacity: 0.5;"/>
  <rect width="20" height="20" x="80" y="20" style="stroke: #cf7852; stroke-width: 0; stroke-opacity: 0.5; fill: #cf7852; fill-opacity: 0.5;"/>
  <rect width="20" height="20" x="100" y="20" style="stroke: #cf7852; stroke-width: 0; stroke-opacity: 0.5; fill: #cf7852; fill-opacity: 0.5;"/>
  <rect width="20" height="20" x="140" y="20" style="stroke: #cf7852; stroke-width: 0; stroke-opacity: 0.5; fill: #cf7852; fill-opacity: 0.5;"/>
  <rect width="20" height="20" x="20" y="40" style="stroke: #cf7852; stroke-width: 0; stroke-opacity: 0.5; fill: #cf7852; fill-opacity: 0.5;"/>
  <rect width="20" height="20" x="40" y="40" style="stroke: #cf7852; stroke-width: 0; stroke-opacity: 0.5; fill: #cf7852; fill-opacity: 0.5;"/>
  <rect width="20" height="20" x="80" y="40" style="stroke: #cf7852; stroke-width: 0; stroke-opacity: 0.5; fill: #cf7852; fill-opacity: 0.5;"/>
  <rect width="20" height="20" x="120" y="40" style="stroke: #cf7852; stroke-width: 0; stroke-opacity: 0.5; fill: #cf7852; fill-opacity: 0.5;"/>
  <rect width="20" height="20" x="140" y="40" style="stroke: #cf7852; stroke-width: 0; stroke-opacity: 0.5; fill: #cf7852; fill-opacity: 0.5;"/>
  <rect width="20" height="20" x="40" y="60" style="stroke: #cf7852; stroke-width: 0; stroke-opacity: 0.5; fill: #cf7852; fill-opacity: 0.5;"/>
  <rect width="20" height="20" x="60" y="60" style="stroke: #cf7852; stroke-width: 0; stroke-opacity: 0.5; fill: #cf7852; fill-opacity: 0.5;"/>
  <rect width="20" height="20" x="100" y="60" style="stroke: #cf7852; stroke-width: 0; stroke-opacity: 0.5; fill: #cf7852; fill-opacity: 0.5;"/>
  <rect width="20" height="20" x="120" y="60" style="stroke: #cf7852; stroke-width: 0; stroke-opacity: 0.5; fill: #cf7852; fill-opacity: 0.5;"/>
  <rect width="20" height="20" x="20" y="80" style="stroke: #cf7852; stroke-width: 0; stroke-opacity: 0.5; fill: #cf7852; fill-opacity: 0.5;"/>
  <rect width="20" height="20" x="40" y="80" style="stroke: #cf7852; stroke-width: 0; stroke-opacity: 0.5; fill: #cf7852; fill-opacity: 0.5;"/>
  <rect width="20" height="20" x="120" y="80" style="stroke: #cf7852; stroke-width: 0; stroke-opacity: 0.5; fill: #cf7852; fill-opacity: 0.5;"/>
  <rect width="20" height="20" x="140" y="80" style="stroke: #cf7852; stroke-width: 0; stroke-opacity: 0.5; fill: #cf7852; fill-opacity: 0.5;"/>
  <rect width="20" height="20" x="0" y="100" style="stroke: #cf7852; stroke-width: 0; stroke-opacity: 0.5; fill: #cf7852; fill-opacity: 0.5;"/>
  <rect width="20" height="20" x="20" y="100" style="stroke: #cf7852; stroke-width: 0; stroke-opacity: 0.5; fill: #cf7852; fill-opacity: 0.5;"/>
  <rect width="20" height="20" x="140" y="100" style="stroke: #cf7852; stroke-width: 0; stroke-opacity: 0.5; fill: #cf7852; fill-opacity: 0.5;"/>
  <rect width="20" height="20" x="160" y="100" style="stroke: #cf7852; stroke-width: 0; stroke-opacity: 0.5; fill: #cf7852; fill-opacity: 0.5;"/>
  <rect width="20" height="20" x="0" y="120" style="stroke: #cf7852; stroke-width: 0; stroke-opacity: 0.5; fill: #cf7852; fill-opacity: 0.5;"/>
  <rect width="20" height="20" x="20" y="120" style="stroke: #cf7852; stroke-width: 0; stroke-opacity: 0.5; fill: #cf7852; fill-opacity: 0.5;"/>
  <rect width="20" height="20" x="40" y="120" style="stroke: #cf7852; stroke-width: 0; stroke-opacity: 0.5; fill: #cf7852; fill-opacity: 0.5;"/>
  <rect width="20" height="20" x="120" y="120" style="stroke: #cf7852; stroke-width: 0; stroke-opacity: 0.5; fill: #cf7852; fill-opacity: 0.5;"/>
  <rect width="20" height="20" x="140" y="120" style="stroke: #cf7852; stroke-width: 0; stroke-opacity: 0.5; fill: #cf7852; fill-opacity: 0.5;"/>
  <rect width="20" height="20" x="160" y="120" style="stroke: #cf7852; stroke-width: 0; stroke-opacity: 0.5; fill: #cf7852; fill-opacity: 0.5;"/>
  <rect width="20" height="20" x="40" y="140" style="stroke: #cf7852; stroke-width: 0; stroke-opacity: 0.5; fill: #cf7852; fill-opacity: 0.5;"/>
  <rect width="20" height="20" x="80" y="140" style="stroke: #cf7852; stroke-width: 0; stroke-opacity: 0.5; fill: #cf7852; fill-opacity: 0.5;"/>
  <rect width="20" height="20" x="120" y="140" style="stroke: #cf7852; stroke-width: 0; stroke-opacity: 0.5; fill: #cf7852; fill-opacity: 0.5;"/>
  <rect width="20" height="20" x="40" y="160" style="stroke: #cf7852; stroke-width: 0; stroke-opacity: 0.5; fill: #cf7852; fill-opacity: 0.5;"/>
  <rect width="20" height="20" x="60" y="160" style="stroke: #cf7852; stroke-width: 0; stroke-opacity: 0.5; fill: #cf7852; fill-opacity: 0.5;"/>
  <rect width="20" height="20" x="80" y="160" style="stroke: #cf7852; stroke-width: 0; stroke-opacity: 0.5; fill: #cf7852; fill-opacity: 0.5;"/>
  <rect width="20" height="20" x="100" y="160" style="stroke: #cf7852; stroke-width: 0; stroke-opacity: 0.5; fill: #cf7852; fill-opacity: 0.5;"/>
  <rect width="20" height="20" x="120" y="160" style="stroke: #cf7852; stroke-width: 0; stroke-opacity: 0.5; fill: #cf7852; fill-opacity: 0.5;"/>
</svg>
