<svg xmlns="http://www.w3.org/2000/svg" shape-rendering="crispEdges" viewBox="0 0 5 5" height="10mm" width="10mm" version="1.2"><path style="fill:#72b302;fill-opacity:1.0;" d="M0 0h1v1h-1zM2 0h1v1h-1zM4 0h1v1h-1zM2 1h1v1h-1zM0 2h2v1h-2zM3 2h2v1h-2zM2 4h1v1h-1z"/><defs><mask maskContentUnits="userSpaceOnUse" id="a"><path style="fill-opacity:1.0;fill:#fff;" d="M0 0h5v5h-5z"/><path style="fill-opacity:1;" d="M0 0h1v1h-1zM2 0h1v1h-1zM4 0h1v1h-1zM2 1h1v1h-1zM0 2h2v1h-2zM3 2h2v1h-2zM2 4h1v1h-1z"/></mask></defs><path mask="url(#a)" style="fill-opacity:1; fill:#8D4CFD;" d="M0 0h5v5h-5z"/></svg>
