<svg version="1.1" width="20mm" height="20mm" viewBox="0 0 200 200" preserveAspectRatio="xMidYMid meet" shape-rendering="crispEdges" xmlns="http://www.w3.org/2000/svg">
  <rect width="20" height="20" x="0" y="0" style="stroke: #e8ba65; stroke-width: 0; stroke-opacity: 0.8; fill: #e8ba65; fill-opacity: 0.8;"/>
  <rect width="20" height="20" x="20" y="0" style="stroke: #e8ba65; stroke-width: 0; stroke-opacity: 0.8; fill: #e8ba65; fill-opacity: 0.8;"/>
  <rect width="20" height="20" x="40" y="0" style="stroke: #ff0; stroke-width: 0; stroke-opacity: 0.8; fill: #ff0; fill-opacity: 0.8;"/>
  <rect width="20" height="20" x="60" y="0" style="stroke: #e8ba65; stroke-width: 0; stroke-opacity: 0.8; fill: #e8ba65; fill-opacity: 0.8;"/>
  <rect width="20" height="20" x="80" y="0" style="stroke: #e8ba65; stroke-width: 0; stroke-opacity: 0.8; fill: #e8ba65; fill-opacity: 0.8;"/>
  <rect width="20" height="20" x="100" y="0" style="stroke: #e8ba65; stroke-width: 0; stroke-opacity: 0.8; fill: #e8ba65; fill-opacity: 0.8;"/>
  <rect width="20" height="20" x="120" y="0" style="stroke: #e8ba65; stroke-width: 0; stroke-opacity: 0.8; fill: #e8ba65; fill-opacity: 0.8;"/>
  <rect width="20" height="20" x="140" y="0" style="stroke: #ff0; stroke-width: 0; stroke-opacity: 0.8; fill: #ff0; fill-opacity: 0.8;"/>
  <rect width="20" height="20" x="160" y="0" style="stroke: #e8ba65; stroke-width: 0; stroke-opacity: 0.8; fill: #e8ba65; fill-opacity: 0.8;"/>
  <rect width="20" height="20" x="180" y="0" style="stroke: #e8ba65; stroke-width: 0; stroke-opacity: 0.8; fill: #e8ba65; fill-opacity: 0.8;"/>
  <rect width="20" height="20" x="0" y="20" style="stroke: #ff0; stroke-width: 0; stroke-opacity: 0.8; fill: #ff0; fill-opacity: 0.8;"/>
  <rect width="20" height="20" x="20" y="20" style="stroke: #ff0; stroke-width: 0; stroke-opacity: 0.8; fill: #ff0; fill-opacity: 0.8;"/>
  <rect width="20" height="20" x="40" y="20" style="stroke: #e8ba65; stroke-width: 0; stroke-opacity: 0.8; fill: #e8ba65; fill-opacity: 0.8;"/>
  <rect width="20" height="20" x="60" y="20" style="stroke: #e8ba65; stroke-width: 0; stroke-opacity: 0.8; fill: #e8ba65; fill-opacity: 0.8;"/>
  <rect width="20" height="20" x="80" y="20" style="stroke: #ff0; stroke-width: 0; stroke-opacity: 0.8; fill: #ff0; fill-opacity: 0.8;"/>
  <rect width="20" height="20" x="100" y="20" style="stroke: #ff0; stroke-width: 0; stroke-opacity: 0.8; fill: #ff0; fill-opacity: 0.8;"/>
  <rect width="20" height="20" x="120" y="20" style="stroke: #e8ba65; stroke-width: 0; stroke-opacity: 0.8; fill: #e8ba65; fill-opacity: 0.8;"/>
  <rect width="20" height="20" x="140" y="20" style="stroke: #e8ba65; stroke-width: 0; stroke-opacity: 0.8; fill: #e8ba65; fill-opacity: 0.8;"/>
  <rect width="20" height="20" x="160" y="20" style="stroke: #ff0; stroke-width: 0; stroke-opacity: 0.8; fill: #ff0; fill-opacity: 0.8;"/>
  <rect width="20" height="20" x="180" y="20" style="stroke: #ff0; stroke-width: 0; stroke-opacity: 0.8; fill: #ff0; fill-opacity: 0.8;"/>
  <rect width="20" height="20" x="0" y="40" style="stroke: #e8ba65; stroke-width: 0; stroke-opacity: 0.8; fill: #e8ba65; fill-opacity: 0.8;"/>
  <rect width="20" height="20" x="20" y="40" style="stroke: #ff0; stroke-width: 0; stroke-opacity: 0.8; fill: #ff0; fill-opacity: 0.8;"/>
  <rect width="20" height="20" x="40" y="40" style="stroke: #ff0; stroke-width: 0; stroke-opacity: 0.8; fill: #ff0; fill-opacity: 0.8;"/>
  <rect width="20" height="20" x="60" y="40" style="stroke: #ff0; stroke-width: 0; stroke-opacity: 0.8; fill: #ff0; fill-opacity: 0.8;"/>
  <rect width="20" height="20" x="80" y="40" style="stroke: #e8ba65; stroke-width: 0; stroke-opacity: 0.8; fill: #e8ba65; fill-opacity: 0.8;"/>
  <rect width="20" height="20" x="100" y="40" style="stroke: #e8ba65; stroke-width: 0; stroke-opacity: 0.8; fill: #e8ba65; fill-opacity: 0.8;"/>
  <rect width="20" height="20" x="120" y="40" style="stroke: #ff0; stroke-width: 0; stroke-opacity: 0.8; fill: #ff0; fill-opacity: 0.8;"/>
  <rect width="20" height="20" x="140" y="40" style="stroke: #ff0; stroke-width: 0; stroke-opacity: 0.8; fill: #ff0; fill-opacity: 0.8;"/>
  <rect width="20" height="20" x="160" y="40" style="stroke: #ff0; stroke-width: 0; stroke-opacity: 0.8; fill: #ff0; fill-opacity: 0.8;"/>
  <rect width="20" height="20" x="180" y="40" style="stroke: #e8ba65; stroke-width: 0; stroke-opacity: 0.8; fill: #e8ba65; fill-opacity: 0.8;"/>
  <rect width="20" height="20" x="0" y="60" style="stroke: #e8ba65; stroke-width: 0; stroke-opacity: 0.8; fill: #e8ba65; fill-opacity: 0.8;"/>
  <rect width="20" height="20" x="20" y="60" style="stroke: #e8ba65; stroke-width: 0; stroke-opacity: 0.8; fill: #e8ba65; fill-opacity: 0.8;"/>
  <rect width="20" height="20" x="40" y="60" style="stroke: #ff0; stroke-width: 0; stroke-opacity: 0.8; fill: #ff0; fill-opacity: 0.8;"/>
  <rect width="20" height="20" x="60" y="60" style="stroke: #ff0; stroke-width: 0; stroke-opacity: 0.8; fill: #ff0; fill-opacity: 0.8;"/>
  <rect width="20" height="20" x="80" y="60" style="stroke: #e8ba65; stroke-width: 0; stroke-opacity: 0.8; fill: #e8ba65; fill-opacity: 0.8;"/>
  <rect width="20" height="20" x="100" y="60" style="stroke: #e8ba65; stroke-width: 0; stroke-opacity: 0.8; fill: #e8ba65; fill-opacity: 0.8;"/>
  <rect width="20" height="20" x="120" y="60" style="stroke: #ff0; stroke-width: 0; stroke-opacity: 0.8; fill: #ff0; fill-opacity: 0.8;"/>
  <rect width="20" height="20" x="140" y="60" style="stroke: #ff0; stroke-width: 0; stroke-opacity: 0.8; fill: #ff0; fill-opacity: 0.8;"/>
  <rect width="20" height="20" x="160" y="60" style="stroke: #e8ba65; stroke-width: 0; stroke-opacity: 0.8; fill: #e8ba65; fill-opacity: 0.8;"/>
  <rect width="20" height="20" x="180" y="60" style="stroke: #e8ba65; stroke-width: 0; stroke-opacity: 0.8; fill: #e8ba65; fill-opacity: 0.8;"/>
  <rect width="20" height="20" x="0" y="80" style="stroke: #e8ba65; stroke-width: 0; stroke-opacity: 0.8; fill: #e8ba65; fill-opacity: 0.8;"/>
  <rect width="20" height="20" x="20" y="80" style="stroke: #ff0; stroke-width: 0; stroke-opacity: 0.8; fill: #ff0; fill-opacity: 0.8;"/>
  <rect width="20" height="20" x="40" y="80" style="stroke: #e8ba65; stroke-width: 0; stroke-opacity: 0.8; fill: #e8ba65; fill-opacity: 0.8;"/>
  <rect width="20" height="20" x="60" y="80" style="stroke: #e8ba65; stroke-width: 0; stroke-opacity: 0.8; fill: #e8ba65; fill-opacity: 0.8;"/>
  <rect width="20" height="20" x="80" y="80" style="stroke: #ff0; stroke-width: 0; stroke-opacity: 0.8; fill: #ff0; fill-opacity: 0.8;"/>
  <rect width="20" height="20" x="100" y="80" style="stroke: #ff0; stroke-width: 0; stroke-opacity: 0.8; fill: #ff0; fill-opacity: 0.8;"/>
  <rect width="20" height="20" x="120" y="80" style="stroke: #e8ba65; stroke-width: 0; stroke-opacity: 0.8; fill: #e8ba65; fill-opacity: 0.8;"/>
  <rect width="20" height="20" x="140" y="80" style="stroke: #e8ba65; stroke-width: 0; stroke-opacity: 0.8; fill: #e8ba65; fill-opacity: 0.8;"/>
  <rect width="20" height="20" x="160" y="80" style="stroke: #ff0; stroke-width: 0; stroke-opacity: 0.8; fill: #ff0; fill-opacity: 0.8;"/>
  <rect width="20" height="20" x="180" y="80" style="stroke: #e8ba65; stroke-width: 0; stroke-opacity: 0.8; fill: #e8ba65; fill-opacity: 0.8;"/>
  <rect width="20" height="20" x="0" y="100" style="stroke: #ff0; stroke-width: 0; stroke-opacity: 0.8; fill: #ff0; fill-opacity: 0.8;"/>
  <rect width="20" height="20" x="20" y="100" style="stroke: #e8ba65; stroke-width: 0; stroke-opacity: 0.8; fill: #e8ba65; fill-opacity: 0.8;"/>
  <rect width="20" height="20" x="40" y="100" style="stroke: #ff0; stroke-width: 0; stroke-opacity: 0.8; fill: #ff0; fill-opacity: 0.8;"/>
  <rect width="20" height="20" x="60" y="100" style="stroke: #ff0; stroke-width: 0; stroke-opacity: 0.8; fill: #ff0; fill-opacity: 0.8;"/>
  <rect width="20" height="20" x="80" y="100" style="stroke: #ff0; stroke-width: 0; stroke-opacity: 0.8; fill: #ff0; fill-opacity: 0.8;"/>
  <rect width="20" height="20" x="100" y="100" style="stroke: #ff0; stroke-width: 0; stroke-opacity: 0.8; fill: #ff0; fill-opacity: 0.8;"/>
  <rect width="20" height="20" x="120" y="100" style="stroke: #ff0; stroke-width: 0; stroke-opacity: 0.8; fill: #ff0; fill-opacity: 0.8;"/>
  <rect width="20" height="20" x="140" y="100" style="stroke: #ff0; stroke-width: 0; stroke-opacity: 0.8; fill: #ff0; fill-opacity: 0.8;"/>
  <rect width="20" height="20" x="160" y="100" style="stroke: #e8ba65; stroke-width: 0; stroke-opacity: 0.8; fill: #e8ba65; fill-opacity: 0.8;"/>
  <rect width="20" height="20" x="180" y="100" style="stroke: #ff0; stroke-width: 0; stroke-opacity: 0.8; fill: #ff0; fill-opacity: 0.8;"/>
  <rect width="20" height="20" x="0" y="120" style="stroke: #e8ba65; stroke-width: 0; stroke-opacity: 0.8; fill: #e8ba65; fill-opacity: 0.8;"/>
  <rect width="20" height="20" x="20" y="120" style="stroke: #e8ba65; stroke-width: 0; stroke-opacity: 0.8; fill: #e8ba65; fill-opacity: 0.8;"/>
  <rect width="20" height="20" x="40" y="120" style="stroke: #ff0; stroke-width: 0; stroke-opacity: 0.8; fill: #ff0; fill-opacity: 0.8;"/>
  <rect width="20" height="20" x="60" y="120" style="stroke: #ff0; stroke-width: 0; stroke-opacity: 0.8; fill: #ff0; fill-opacity: 0.8;"/>
  <rect width="20" height="20" x="80" y="120" style="stroke: #e8ba65; stroke-width: 0; stroke-opacity: 0.8; fill: #e8ba65; fill-opacity: 0.8;"/>
  <rect width="20" height="20" x="100" y="120" style="stroke: #e8ba65; stroke-width: 0; stroke-opacity: 0.8; fill: #e8ba65; fill-opacity: 0.8;"/>
  <rect width="20" height="20" x="120" y="120" style="stroke: #ff0; stroke-width: 0; stroke-opacity: 0.8; fill: #ff0; fill-opacity: 0.8;"/>
  <rect width="20" height="20" x="140" y="120" style="stroke: #ff0; stroke-width: 0; stroke-opacity: 0.8; fill: #ff0; fill-opacity: 0.8;"/>
  <rect width="20" height="20" x="160" y="120" style="stroke: #e8ba65; stroke-width: 0; stroke-opacity: 0.8; fill: #e8ba65; fill-opacity: 0.8;"/>
  <rect width="20" height="20" x="180" y="120" style="stroke: #e8ba65; stroke-width: 0; stroke-opacity: 0.8; fill: #e8ba65; fill-opacity: 0.8;"/>
  <rect width="20" height="20" x="0" y="140" style="stroke: #ff0; stroke-width: 0; stroke-opacity: 0.8; fill: #ff0; fill-opacity: 0.8;"/>
  <rect width="20" height="20" x="20" y="140" style="stroke: #e8ba65; stroke-width: 0; stroke-opacity: 0.8; fill: #e8ba65; fill-opacity: 0.8;"/>
  <rect width="20" height="20" x="40" y="140" style="stroke: #ff0; stroke-width: 0; stroke-opacity: 0.8; fill: #ff0; fill-opacity: 0.8;"/>
  <rect width="20" height="20" x="60" y="140" style="stroke: #ff0; stroke-width: 0; stroke-opacity: 0.8; fill: #ff0; fill-opacity: 0.8;"/>
  <rect width="20" height="20" x="80" y="140" style="stroke: #e8ba65; stroke-width: 0; stroke-opacity: 0.8; fill: #e8ba65; fill-opacity: 0.8;"/>
  <rect width="20" height="20" x="100" y="140" style="stroke: #e8ba65; stroke-width: 0; stroke-opacity: 0.8; fill: #e8ba65; fill-opacity: 0.8;"/>
  <rect width="20" height="20" x="120" y="140" style="stroke: #ff0; stroke-width: 0; stroke-opacity: 0.8; fill: #ff0; fill-opacity: 0.8;"/>
  <rect width="20" height="20" x="140" y="140" style="stroke: #ff0; stroke-width: 0; stroke-opacity: 0.8; fill: #ff0; fill-opacity: 0.8;"/>
  <rect width="20" height="20" x="160" y="140" style="stroke: #e8ba65; stroke-width: 0; stroke-opacity: 0.8; fill: #e8ba65; fill-opacity: 0.8;"/>
  <rect width="20" height="20" x="180" y="140" style="stroke: #ff0; stroke-width: 0; stroke-opacity: 0.8; fill: #ff0; fill-opacity: 0.8;"/>
  <rect width="20" height="20" x="0" y="160" style="stroke: #ff0; stroke-width: 0; stroke-opacity: 0.8; fill: #ff0; fill-opacity: 0.8;"/>
  <rect width="20" height="20" x="20" y="160" style="stroke: #e8ba65; stroke-width: 0; stroke-opacity: 0.8; fill: #e8ba65; fill-opacity: 0.8;"/>
  <rect width="20" height="20" x="40" y="160" style="stroke: #e8ba65; stroke-width: 0; stroke-opacity: 0.8; fill: #e8ba65; fill-opacity: 0.8;"/>
  <rect width="20" height="20" x="60" y="160" style="stroke: #e8ba65; stroke-width: 0; stroke-opacity: 0.8; fill: #e8ba65; fill-opacity: 0.8;"/>
  <rect width="20" height="20" x="80" y="160" style="stroke: #e8ba65; stroke-width: 0; stroke-opacity: 0.8; fill: #e8ba65; fill-opacity: 0.8;"/>
  <rect width="20" height="20" x="100" y="160" style="stroke: #e8ba65; stroke-width: 0; stroke-opacity: 0.8; fill: #e8ba65; fill-opacity: 0.8;"/>
  <rect width="20" height="20" x="120" y="160" style="stroke: #e8ba65; stroke-width: 0; stroke-opacity: 0.8; fill: #e8ba65; fill-opacity: 0.8;"/>
  <rect width="20" height="20" x="140" y="160" style="stroke: #e8ba65; stroke-width: 0; stroke-opacity: 0.8; fill: #e8ba65; fill-opacity: 0.8;"/>
  <rect width="20" height="20" x="160" y="160" style="stroke: #e8ba65; stroke-width: 0; stroke-opacity: 0.8; fill: #e8ba65; fill-opacity: 0.8;"/>
  <rect width="20" height="20" x="180" y="160" style="stroke: #ff0; stroke-width: 0; stroke-opacity: 0.8; fill: #ff0; fill-opacity: 0.8;"/>
  <rect width="20" height="20" x="0" y="180" style="stroke: #e8ba65; stroke-width: 0; stroke-opacity: 0.8; fill: #e8ba65; fill-opacity: 0.8;"/>
  <rect width="20" height="20" x="20" y="180" style="stroke: #e8ba65; stroke-width: 0; stroke-opacity: 0.8; fill: #e8ba65; fill-opacity: 0.8;"/>
  <rect width="20" height="20" x="40" y="180" style="stroke: #ff0; stroke-width: 0; stroke-opacity: 0.8; fill: #ff0; fill-opacity: 0.8;"/>
  <rect width="20" height="20" x="60" y="180" style="stroke: #e8ba65; stroke-width: 0; stroke-opacity: 0.8; fill: #e8ba65; fill-opacity: 0.8;"/>
  <rect width="20" height="20" x="80" y="180" style="stroke: #e8ba65; stroke-width: 0; stroke-opacity: 0.8; fill: #e8ba65; fill-opacity: 0.8;"/>
  <rect width="20" height="20" x="100" y="180" style="stroke: #e8ba65; stroke-width: 0; stroke-opacity: 0.8; fill: #e8ba65; fill-opacity: 0.8;"/>
  <rect width="20" height="20" x="120" y="180" style="stroke: #e8ba65; stroke-width: 0; stroke-opacity: 0.8; fill: #e8ba65; fill-opacity: 0.8;"/>
  <rect width="20" height="20" x="140" y="180" style="stroke: #ff0; stroke-width: 0; stroke-opacity: 0.8; fill: #ff0; fill-opacity: 0.8;"/>
  <rect width="20" height="20" x="160" y="180" style="stroke: #e8ba65; stroke-width: 0; stroke-opacity: 0.8; fill: #e8ba65; fill-opacity: 0.8;"/>
  <rect width="20" height="20" x="180" y="180" style="stroke: #e8ba65; stroke-width: 0; stroke-opacity: 0.8; fill: #e8ba65; fill-opacity: 0.8;"/>
</svg>
