<svg xmlns="http://www.w3.org/2000/svg" shape-rendering="crispEdges" viewBox="0 0 10 10" height="10mm" width="10mm" version="1.2"><path style="fill:#e8ba65;fill-opacity:0.8;" d="M0 0h2v1h-2zM3 0h4v1h-4zM8 0h2v1h-2zM2 1h2v1h-2zM6 1h2v1h-2zM0 2h1v1h-1zM4 2h2v1h-2zM9 2h1v1h-1zM0 3h2v1h-2zM4 3h2v1h-2zM8 3h2v1h-2zM0 4h1v1h-1zM2 4h2v1h-2zM6 4h2v1h-2zM9 4h1v1h-1zM1 5h1v1h-1zM8 5h1v1h-1zM0 6h2v1h-2zM4 6h2v1h-2zM8 6h2v1h-2zM1 7h1v1h-1zM4 7h2v1h-2zM8 7h1v1h-1zM1 8h8v1h-8zM0 9h2v1h-2zM3 9h4v1h-4zM8 9h2v1h-2z"/><defs><mask maskContentUnits="userSpaceOnUse" id="a"><path style="fill-opacity:0.8;fill:#fff;" d="M0 0h10v10h-10z"/><path style="fill-opacity:1;" d="M0 0h2v1h-2zM3 0h4v1h-4zM8 0h2v1h-2zM2 1h2v1h-2zM6 1h2v1h-2zM0 2h1v1h-1zM4 2h2v1h-2zM9 2h1v1h-1zM0 3h2v1h-2zM4 3h2v1h-2zM8 3h2v1h-2zM0 4h1v1h-1zM2 4h2v1h-2zM6 4h2v1h-2zM9 4h1v1h-1zM1 5h1v1h-1zM8 5h1v1h-1zM0 6h2v1h-2zM4 6h2v1h-2zM8 6h2v1h-2zM1 7h1v1h-1zM4 7h2v1h-2zM8 7h1v1h-1zM1 8h8v1h-8zM0 9h2v1h-2zM3 9h4v1h-4zM8 9h2v1h-2z"/></mask></defs><path mask="url(#a)" style="fill-opacity:1; fill:#ff0;" d="M0 0h10v10h-10z"/></svg>
