<svg xmlns="http://www.w3.org/2000/svg" shape-rendering="crispEdges" viewBox="0 0 9 9" height="100%" width="100%" version="1.2"><defs><pattern id="0z9w6q" patternUnits="userSpaceOnUse" width="9" height="9"><g transform="translate(2,2)"><path style="fill:#74b565;fill-opacity:0.4;" d="M0 0h1v1h-1zM4 0h1v1h-1zM0 1h2v1h-2zM3 1h2v1h-2zM0 2h2v1h-2zM3 2h2v1h-2zM0 3h1v1h-1zM4 3h1v1h-1zM0 4h1v1h-1zM2 4h1v1h-1zM4 4h1v1h-1z"/><defs><mask maskContentUnits="userSpaceOnUse" id="g55gz016qg"><path style="fill-opacity:0.4;fill:#fff;" d="M-2 -2h9v9h-9z"/><path style="fill-opacity:1;" d="M0 0h1v1h-1zM4 0h1v1h-1zM0 1h2v1h-2zM3 1h2v1h-2zM0 2h2v1h-2zM3 2h2v1h-2zM0 3h1v1h-1zM4 3h1v1h-1zM0 4h1v1h-1zM2 4h1v1h-1zM4 4h1v1h-1z"/></mask></defs><path mask="url(#g55gz016qg)" style="fill-opacity:1; fill:#8B4A9A;" d="M-2 -2h9v9h-9z"/></g></pattern></defs><path d="M0 4.5C0 0.81 0.81 0 4.5 0S 9 0.81 9 4.5 8.19 9 4.5 9 0 8.19 0 4.5" transform="" fill="url(#0z9w6q)"/></svg>
