<svg xmlns="http://www.w3.org/2000/svg" shape-rendering="crispEdges" viewBox="-1 -1 9 9" height="10mm" width="10mm" version="1.2"><path style="fill:#8d9dec;fill-opacity:0.7;" d="M2 0h3v1h-3zM0 1h1v1h-1zM6 1h1v1h-1zM0 2h1v1h-1zM3 2h1v1h-1zM6 2h1v1h-1zM0 3h1v1h-1zM3 3h1v1h-1zM6 3h1v1h-1zM1 4h5v1h-5zM1 5h1v1h-1zM5 5h1v1h-1zM0 6h2v1h-2zM5 6h2v1h-2z"/><defs><mask maskContentUnits="userSpaceOnUse" id="a"><path style="fill-opacity:0.7;fill:#fff;" d="M-1 -1h9v9h-9z"/><path style="fill-opacity:1;" d="M2 0h3v1h-3zM0 1h1v1h-1zM6 1h1v1h-1zM0 2h1v1h-1zM3 2h1v1h-1zM6 2h1v1h-1zM0 3h1v1h-1zM3 3h1v1h-1zM6 3h1v1h-1zM1 4h5v1h-5zM1 5h1v1h-1zM5 5h1v1h-1zM0 6h2v1h-2zM5 6h2v1h-2z"/></mask></defs><path mask="url(#a)" style="fill-opacity:1; fill:#726213;" d="M-1 -1h9v9h-9z"/></svg>
