<svg xmlns="http://www.w3.org/2000/svg" shape-rendering="crispEdges" viewBox="0 0 7 7" height="10mm" width="10mm" version="1.2"><path style="fill:#e3f3fe;fill-opacity:1.0;" d="M2 0h1v1h-1zM4 0h1v1h-1zM1 1h1v1h-1zM5 1h1v1h-1zM1 2h1v1h-1zM3 2h1v1h-1zM5 2h1v1h-1zM0 3h3v1h-3zM4 3h3v1h-3zM0 4h2v1h-2zM5 4h2v1h-2zM1 5h1v1h-1zM3 5h1v1h-1zM5 5h1v1h-1zM0 6h1v1h-1zM6 6h1v1h-1z"/><defs><mask maskContentUnits="userSpaceOnUse" id="a"><path style="fill-opacity:1.0;fill:#fff;" d="M0 0h7v7h-7z"/><path style="fill-opacity:1;" d="M2 0h1v1h-1zM4 0h1v1h-1zM1 1h1v1h-1zM5 1h1v1h-1zM1 2h1v1h-1zM3 2h1v1h-1zM5 2h1v1h-1zM0 3h3v1h-3zM4 3h3v1h-3zM0 4h2v1h-2zM5 4h2v1h-2zM1 5h1v1h-1zM3 5h1v1h-1zM5 5h1v1h-1zM0 6h1v1h-1zM6 6h1v1h-1z"/></mask></defs><path mask="url(#a)" style="fill-opacity:1; fill:#33f;" d="M0 0h7v7h-7z"/></svg>
