<svg xmlns="http://www.w3.org/2000/svg" shape-rendering="crispEdges" viewBox="0 0 16 16" height="100%" width="100%" version="1.2"><defs><pattern id="kxx0yk" patternUnits="userSpaceOnUse" width="16" height="16"><g transform="translate(3,3)"><path style="fill:#1f4ac2;fill-opacity:1.0;" d="M1 0h2v1h-2zM7 0h2v1h-2zM0 1h3v1h-3zM7 1h3v1h-3zM1 2h3v1h-3zM6 2h3v1h-3zM0 3h2v1h-2zM8 3h2v1h-2zM0 4h1v1h-1zM2 4h1v1h-1zM7 4h1v1h-1zM9 4h1v1h-1zM0 5h1v1h-1zM4 5h2v1h-2zM9 5h1v1h-1zM0 6h1v1h-1zM4 6h2v1h-2zM9 6h1v1h-1zM1 7h8v1h-8zM0 8h3v1h-3zM4 8h2v1h-2zM7 8h3v1h-3zM1 9h1v1h-1zM4 9h2v1h-2zM8 9h1v1h-1z"/><defs><mask maskContentUnits="userSpaceOnUse" id="65tfd5fv86"><path style="fill-opacity:1.0;fill:#fff;" d="M-3 -3h16v16h-16z"/><path style="fill-opacity:1;" d="M1 0h2v1h-2zM7 0h2v1h-2zM0 1h3v1h-3zM7 1h3v1h-3zM1 2h3v1h-3zM6 2h3v1h-3zM0 3h2v1h-2zM8 3h2v1h-2zM0 4h1v1h-1zM2 4h1v1h-1zM7 4h1v1h-1zM9 4h1v1h-1zM0 5h1v1h-1zM4 5h2v1h-2zM9 5h1v1h-1zM0 6h1v1h-1zM4 6h2v1h-2zM9 6h1v1h-1zM1 7h8v1h-8zM0 8h3v1h-3zM4 8h2v1h-2zM7 8h3v1h-3zM1 9h1v1h-1zM4 9h2v1h-2zM8 9h1v1h-1z"/></mask></defs><path mask="url(#65tfd5fv86)" style="fill-opacity:1; fill:#E0B5C2;" d="M-3 -3h16v16h-16z"/></g></pattern></defs><path d="M0 8C0 0.8 0.8 0 8 0S 16 0.8 16 8 15.2 16 8 16 0 15.2 0 8" transform="" fill="url(#kxx0yk)"/></svg>
